<?xml version="1.0" encoding="UTF-8" standalone="no"?>
<!DOCTYPE svg PUBLIC "-//W3C//DTD SVG 1.1//EN"
 "http://www.w3.org/Graphics/SVG/1.1/DTD/svg11.dtd">
<!-- Generated by graphviz version 2.43.0 (0)
 -->
<!-- Title: ObjectDiagram Pages: 1 -->
<svg width="1201pt" height="501pt"
 viewBox="0.00 0.00 1201.00 501.00" xmlns="http://www.w3.org/2000/svg" xmlns:xlink="http://www.w3.org/1999/xlink">
<g id="graph0" class="graph" transform="scale(1 1) rotate(0) translate(4 497)">
<title>ObjectDiagram</title>
<polygon fill="white" stroke="transparent" points="-4,4 -4,-497 1197,-497 1197,4 -4,4"/>
<!-- Kereskedes1 -->
<g id="node1" class="node">
<title>Kereskedes1</title>
<polygon fill="none" stroke="black" points="0,-222.5 0,-298.5 320,-298.5 320,-222.5 0,-222.5"/>
<text text-anchor="middle" x="160" y="-283.3" font-family="Times,serif" font-size="14.00">Kisállatkereskedés</text>
<polyline fill="none" stroke="black" points="0,-275.5 320,-275.5 "/>
<text text-anchor="start" x="8" y="-260.3" font-family="Times,serif" font-size="14.00">név = &quot;Nagy Mancsok Kisállatkereskedés&quot;</text>
<text text-anchor="start" x="8" y="-245.3" font-family="Times,serif" font-size="14.00">cím = &quot;Budapest, Fő utca 1.&quot;</text>
<text text-anchor="middle" x="160" y="-230.3" font-family="Times,serif" font-size="14.00">igazolványszám = &quot;ABC123456&quot;</text>
</g>
<!-- Vevo1 -->
<g id="node2" class="node">
<title>Vevo1</title>
<polygon fill="none" stroke="black" points="420,-416.5 420,-492.5 666,-492.5 666,-416.5 420,-416.5"/>
<text text-anchor="middle" x="543" y="-477.3" font-family="Times,serif" font-size="14.00">Állattartó</text>
<polyline fill="none" stroke="black" points="420,-469.5 666,-469.5 "/>
<text text-anchor="start" x="428" y="-454.3" font-family="Times,serif" font-size="14.00">név = &quot;Kovács Béla&quot;</text>
<text text-anchor="start" x="428" y="-439.3" font-family="Times,serif" font-size="14.00">cím = &quot;Budapest, Kis utca 2.&quot;</text>
<text text-anchor="middle" x="543" y="-424.3" font-family="Times,serif" font-size="14.00">igazolványszám = &quot;XYZ987654&quot;</text>
</g>
<!-- Kereskedes1&#45;&gt;Vevo1 -->
<g id="edge11" class="edge">
<title>Kereskedes1&#45;&gt;Vevo1</title>
<path fill="none" stroke="black" d="M198.79,-298.5C232.54,-330.4 284.76,-374.89 338,-401.5 360.4,-412.69 385.39,-421.69 410,-428.86"/>
<polygon fill="black" stroke="black" points="409.19,-432.27 419.77,-431.62 411.1,-425.53 409.19,-432.27"/>
<text text-anchor="middle" x="365.5" y="-426.3" font-family="Times,serif" font-size="14.00">partner</text>
</g>
<!-- Vevo2 -->
<g id="node3" class="node">
<title>Vevo2</title>
<polygon fill="none" stroke="black" points="411,-0.5 411,-76.5 675,-76.5 675,-0.5 411,-0.5"/>
<text text-anchor="middle" x="543" y="-61.3" font-family="Times,serif" font-size="14.00">Állattartó</text>
<polyline fill="none" stroke="black" points="411,-53.5 675,-53.5 "/>
<text text-anchor="start" x="419" y="-38.3" font-family="Times,serif" font-size="14.00">név = &quot;Nagy Anna&quot;</text>
<text text-anchor="start" x="419" y="-23.3" font-family="Times,serif" font-size="14.00">cím = &quot;Debrecen, Kossuth utca 3.&quot;</text>
<text text-anchor="middle" x="543" y="-8.3" font-family="Times,serif" font-size="14.00">igazolványszám = &quot;QWE543210&quot;</text>
</g>
<!-- Kereskedes1&#45;&gt;Vevo2 -->
<g id="edge12" class="edge">
<title>Kereskedes1&#45;&gt;Vevo2</title>
<path fill="none" stroke="black" d="M186.4,-222.37C217.04,-179.63 272.65,-111.73 338,-76.5 357.41,-66.04 379.19,-58.41 401.11,-52.85"/>
<polygon fill="black" stroke="black" points="401.93,-56.25 410.84,-50.52 400.3,-49.44 401.93,-56.25"/>
<text text-anchor="middle" x="365.5" y="-80.3" font-family="Times,serif" font-size="14.00">partner</text>
</g>
<!-- Partner1 -->
<g id="node4" class="node">
<title>Partner1</title>
<polygon fill="none" stroke="black" points="420,-172.5 420,-248.5 666,-248.5 666,-172.5 420,-172.5"/>
<text text-anchor="middle" x="543" y="-233.3" font-family="Times,serif" font-size="14.00">Állattartó</text>
<polyline fill="none" stroke="black" points="420,-225.5 666,-225.5 "/>
<text text-anchor="start" x="428" y="-210.3" font-family="Times,serif" font-size="14.00">név = &quot;Kis Péter&quot;</text>
<text text-anchor="start" x="428" y="-195.3" font-family="Times,serif" font-size="14.00">cím = &quot;Szeged, Vár utca 4.&quot;</text>
<text text-anchor="middle" x="543" y="-180.3" font-family="Times,serif" font-size="14.00">igazolványszám = &quot;RTY678901&quot;</text>
</g>
<!-- Kereskedes1&#45;&gt;Partner1 -->
<g id="edge10" class="edge">
<title>Kereskedes1&#45;&gt;Partner1</title>
<path fill="none" stroke="black" d="M320.1,-239.62C349.94,-235.7 380.84,-231.65 409.76,-227.85"/>
<polygon fill="black" stroke="black" points="410.44,-231.3 419.9,-226.52 409.53,-224.35 410.44,-231.3"/>
<text text-anchor="middle" x="365.5" y="-240.3" font-family="Times,serif" font-size="14.00">partner</text>
</g>
<!-- Szamla1 -->
<g id="node5" class="node">
<title>Szamla1</title>
<polygon fill="none" stroke="black" points="815,-371 815,-462 993,-462 993,-371 815,-371"/>
<text text-anchor="middle" x="904" y="-446.8" font-family="Times,serif" font-size="14.00">Számla</text>
<polyline fill="none" stroke="black" points="815,-439 993,-439 "/>
<text text-anchor="start" x="823" y="-423.8" font-family="Times,serif" font-size="14.00">eladó = Kereskedes1</text>
<text text-anchor="start" x="823" y="-408.8" font-family="Times,serif" font-size="14.00">vevő = Vevo1</text>
<text text-anchor="start" x="823" y="-393.8" font-family="Times,serif" font-size="14.00">dátum = &quot;2025&#45;04&#45;01&quot;</text>
<text text-anchor="middle" x="904" y="-378.8" font-family="Times,serif" font-size="14.00">ár = 5000</text>
</g>
<!-- Kereskedes1&#45;&gt;Szamla1 -->
<g id="edge1" class="edge">
<title>Kereskedes1&#45;&gt;Szamla1</title>
<path fill="none" stroke="black" d="M217.45,-298.54C251.02,-319.22 295.27,-343.22 338,-356.5 422.6,-382.8 666.66,-401.73 804.74,-410.69"/>
<polygon fill="black" stroke="black" points="804.7,-414.19 814.9,-411.34 805.15,-407.21 804.7,-414.19"/>
</g>
<!-- Szamla2 -->
<g id="node6" class="node">
<title>Szamla2</title>
<polygon fill="none" stroke="black" points="815,-223 815,-314 993,-314 993,-223 815,-223"/>
<text text-anchor="middle" x="904" y="-298.8" font-family="Times,serif" font-size="14.00">Számla</text>
<polyline fill="none" stroke="black" points="815,-291 993,-291 "/>
<text text-anchor="start" x="823" y="-275.8" font-family="Times,serif" font-size="14.00">eladó = Partner1</text>
<text text-anchor="start" x="823" y="-260.8" font-family="Times,serif" font-size="14.00">vevő = Kereskedes1</text>
<text text-anchor="start" x="823" y="-245.8" font-family="Times,serif" font-size="14.00">dátum = &quot;2025&#45;03&#45;15&quot;</text>
<text text-anchor="middle" x="904" y="-230.8" font-family="Times,serif" font-size="14.00">ár = 3000</text>
</g>
<!-- Kereskedes1&#45;&gt;Szamla2 -->
<g id="edge2" class="edge">
<title>Kereskedes1&#45;&gt;Szamla2</title>
<path fill="none" stroke="black" d="M320.18,-262.22C467.21,-263.8 681,-266.11 804.64,-267.44"/>
<polygon fill="black" stroke="black" points="804.81,-270.94 814.85,-267.55 804.88,-263.94 804.81,-270.94"/>
</g>
<!-- Szamla3 -->
<g id="node7" class="node">
<title>Szamla3</title>
<polygon fill="none" stroke="black" points="815,-24 815,-115 993,-115 993,-24 815,-24"/>
<text text-anchor="middle" x="904" y="-99.8" font-family="Times,serif" font-size="14.00">Számla</text>
<polyline fill="none" stroke="black" points="815,-92 993,-92 "/>
<text text-anchor="start" x="823" y="-76.8" font-family="Times,serif" font-size="14.00">eladó = Kereskedes1</text>
<text text-anchor="start" x="823" y="-61.8" font-family="Times,serif" font-size="14.00">vevő = Vevo2</text>
<text text-anchor="start" x="823" y="-46.8" font-family="Times,serif" font-size="14.00">dátum = &quot;2025&#45;04&#45;05&quot;</text>
<text text-anchor="middle" x="904" y="-31.8" font-family="Times,serif" font-size="14.00">ár = 7000</text>
</g>
<!-- Kereskedes1&#45;&gt;Szamla3 -->
<g id="edge3" class="edge">
<title>Kereskedes1&#45;&gt;Szamla3</title>
<path fill="none" stroke="black" d="M199.43,-222.43C232.98,-191.71 284.57,-150.32 338,-129.5 380.34,-113.01 654.45,-89.17 804.75,-77.11"/>
<polygon fill="black" stroke="black" points="805.22,-80.58 814.91,-76.3 804.66,-73.6 805.22,-80.58"/>
</g>
<!-- Horcsog1 -->
<g id="node8" class="node">
<title>Horcsog1</title>
<polygon fill="none" stroke="black" points="1030,-260 1030,-351 1193,-351 1193,-260 1030,-260"/>
<text text-anchor="middle" x="1111.5" y="-335.8" font-family="Times,serif" font-size="14.00">Hörcsög</text>
<polyline fill="none" stroke="black" points="1030,-328 1193,-328 "/>
<text text-anchor="start" x="1038" y="-312.8" font-family="Times,serif" font-size="14.00">azonosító = &quot;H123&quot;</text>
<text text-anchor="start" x="1038" y="-297.8" font-family="Times,serif" font-size="14.00">szín = &quot;barna&quot;</text>
<text text-anchor="start" x="1038" y="-282.8" font-family="Times,serif" font-size="14.00">kor = 1</text>
<text text-anchor="middle" x="1111.5" y="-267.8" font-family="Times,serif" font-size="14.00">eszmeiÉrték = 4000</text>
</g>
<!-- Kereskedes1&#45;&gt;Horcsog1 -->
<g id="edge13" class="edge">
<title>Kereskedes1&#45;&gt;Horcsog1</title>
<path fill="none" stroke="black" d="M320.28,-280.16C452.51,-295.44 645.66,-315.36 815,-323.5 894.02,-327.3 914.12,-329.51 993,-323.5 1001.67,-322.84 1010.67,-321.91 1019.66,-320.81"/>
<polygon fill="black" stroke="black" points="1020.31,-324.26 1029.78,-319.52 1019.42,-317.32 1020.31,-324.26"/>
<text text-anchor="middle" x="745" y="-340.3" font-family="Times,serif" font-size="14.00">birtokolja</text>
<text text-anchor="middle" x="745" y="-325.3" font-family="Times,serif" font-size="14.00">(vétel&gt;eladás)</text>
</g>
<!-- Pinty1 -->
<g id="node9" class="node">
<title>Pinty1</title>
<polygon fill="none" stroke="black" points="1030,-74 1030,-165 1193,-165 1193,-74 1030,-74"/>
<text text-anchor="middle" x="1111.5" y="-149.8" font-family="Times,serif" font-size="14.00">Pinty</text>
<polyline fill="none" stroke="black" points="1030,-142 1193,-142 "/>
<text text-anchor="start" x="1038" y="-126.8" font-family="Times,serif" font-size="14.00">azonosító = &quot;P456&quot;</text>
<text text-anchor="start" x="1038" y="-111.8" font-family="Times,serif" font-size="14.00">szín = &quot;sárga&quot;</text>
<text text-anchor="start" x="1038" y="-96.8" font-family="Times,serif" font-size="14.00">kor = 2</text>
<text text-anchor="middle" x="1111.5" y="-81.8" font-family="Times,serif" font-size="14.00">eszmeiÉrték = 2000</text>
</g>
<!-- Kereskedes1&#45;&gt;Pinty1 -->
<g id="edge15" class="edge">
<title>Kereskedes1&#45;&gt;Pinty1</title>
<path fill="none" stroke="black" d="M240.39,-222.46C288.59,-201.21 352,-176.47 411,-163.5 468.89,-150.77 843.86,-131.93 1019.72,-123.65"/>
<polygon fill="black" stroke="black" points="1019.91,-127.15 1029.73,-123.18 1019.58,-120.16 1019.91,-127.15"/>
<text text-anchor="middle" x="745" y="-159.3" font-family="Times,serif" font-size="14.00">birtokolja</text>
<text text-anchor="middle" x="745" y="-144.3" font-family="Times,serif" font-size="14.00">(vétel=eladás)</text>
</g>
<!-- Vevo1&#45;&gt;Szamla1 -->
<g id="edge4" class="edge">
<title>Vevo1&#45;&gt;Szamla1</title>
<path fill="none" stroke="black" d="M666.04,-441.58C711.21,-436.8 761.8,-431.45 804.6,-426.92"/>
<polygon fill="black" stroke="black" points="805.16,-430.38 814.73,-425.84 804.42,-423.42 805.16,-430.38"/>
</g>
<!-- Vevo2&#45;&gt;Szamla3 -->
<g id="edge6" class="edge">
<title>Vevo2&#45;&gt;Szamla3</title>
<path fill="none" stroke="black" d="M675.13,-49.82C717.97,-53.52 764.78,-57.56 804.77,-61.02"/>
<polygon fill="black" stroke="black" points="804.52,-64.51 814.78,-61.88 805.12,-57.54 804.52,-64.51"/>
</g>
<!-- Partner1&#45;&gt;Szamla2 -->
<g id="edge5" class="edge">
<title>Partner1&#45;&gt;Szamla2</title>
<path fill="none" stroke="black" d="M666.04,-230.22C711.21,-237.51 761.8,-245.69 804.6,-252.6"/>
<polygon fill="black" stroke="black" points="804.3,-256.1 814.73,-254.24 805.42,-249.19 804.3,-256.1"/>
</g>
<!-- Partner1&#45;&gt;Horcsog1 -->
<g id="edge14" class="edge">
<title>Partner1&#45;&gt;Horcsog1</title>
<path fill="none" stroke="black" d="M666.03,-196.77C778.23,-186.03 935.6,-176.28 993,-198.5 1021.77,-209.64 1047.82,-231.46 1068.05,-252.51"/>
<polygon fill="black" stroke="black" points="1065.57,-254.98 1074.95,-259.9 1070.68,-250.2 1065.57,-254.98"/>
<text text-anchor="middle" x="904" y="-202.3" font-family="Times,serif" font-size="14.00">eladta</text>
</g>
<!-- Szamla1&#45;&gt;Horcsog1 -->
<g id="edge7" class="edge">
<title>Szamla1&#45;&gt;Horcsog1</title>
<path fill="none" stroke="black" d="M989.47,-370.87C999.83,-365.28 1010.45,-359.54 1020.88,-353.91"/>
<polygon fill="black" stroke="black" points="1022.86,-356.82 1029.99,-348.99 1019.53,-350.66 1022.86,-356.82"/>
</g>
<!-- Szamla2&#45;&gt;Horcsog1 -->
<g id="edge8" class="edge">
<title>Szamla2&#45;&gt;Horcsog1</title>
<path fill="none" stroke="black" d="M993.04,-284.35C1001.91,-285.95 1010.92,-287.57 1019.82,-289.17"/>
<polygon fill="black" stroke="black" points="1019.33,-292.64 1029.79,-290.97 1020.57,-285.75 1019.33,-292.64"/>
</g>
<!-- Szamla3&#45;&gt;Pinty1 -->
<g id="edge9" class="edge">
<title>Szamla3&#45;&gt;Pinty1</title>
<path fill="none" stroke="black" d="M993.04,-90.92C1001.91,-93.08 1010.92,-95.27 1019.82,-97.44"/>
<polygon fill="black" stroke="black" points="1019.24,-100.9 1029.79,-99.86 1020.9,-94.1 1019.24,-100.9"/>
</g>
</g>
</svg>
