<?xml version="1.0" encoding="UTF-8" standalone="no"?>
<!DOCTYPE svg PUBLIC "-//W3C//DTD SVG 1.1//EN"
 "http://www.w3.org/Graphics/SVG/1.1/DTD/svg11.dtd">
<!-- Generated by graphviz version 2.43.0 (0)
 -->
<!-- Title: ObjectDiagramWithMultiplicity Pages: 1 -->
<svg width="1041pt" height="496pt"
 viewBox="0.00 0.00 1041.00 495.84" xmlns="http://www.w3.org/2000/svg" xmlns:xlink="http://www.w3.org/1999/xlink">
<g id="graph0" class="graph" transform="scale(1 1) rotate(0) translate(4 491.84)">
<title>ObjectDiagramWithMultiplicity</title>
<polygon fill="white" stroke="transparent" points="-4,4 -4,-491.84 1037,-491.84 1037,4 -4,4"/>
<!-- Kereskedes1 -->
<g id="node1" class="node">
<title>Kereskedes1</title>
<polygon fill="none" stroke="black" points="0,-219.84 0,-295.84 320,-295.84 320,-219.84 0,-219.84"/>
<text text-anchor="middle" x="160" y="-280.64" font-family="Times,serif" font-size="14.00">Kisállatkereskedés</text>
<polyline fill="none" stroke="black" points="0,-272.84 320,-272.84 "/>
<text text-anchor="start" x="8" y="-257.64" font-family="Times,serif" font-size="14.00">név = &quot;Nagy Mancsok Kisállatkereskedés&quot;</text>
<text text-anchor="start" x="8" y="-242.64" font-family="Times,serif" font-size="14.00">cím = &quot;Budapest, Fő utca 1.&quot;</text>
<text text-anchor="middle" x="160" y="-227.64" font-family="Times,serif" font-size="14.00">igazolványszám = &quot;ABC123456&quot;</text>
</g>
<!-- Vevo1 -->
<g id="node2" class="node">
<title>Vevo1</title>
<polygon fill="none" stroke="black" points="365,-186.84 365,-262.84 611,-262.84 611,-186.84 365,-186.84"/>
<text text-anchor="middle" x="488" y="-247.64" font-family="Times,serif" font-size="14.00">Állattartó</text>
<polyline fill="none" stroke="black" points="365,-239.84 611,-239.84 "/>
<text text-anchor="start" x="373" y="-224.64" font-family="Times,serif" font-size="14.00">név = &quot;Kovács Béla&quot;</text>
<text text-anchor="start" x="373" y="-209.64" font-family="Times,serif" font-size="14.00">cím = &quot;Budapest, Kis utca 2.&quot;</text>
<text text-anchor="middle" x="488" y="-194.64" font-family="Times,serif" font-size="14.00">igazolványszám = &quot;XYZ987654&quot;</text>
</g>
<!-- Kereskedes1&#45;&gt;Vevo1 -->
<g id="edge11" class="edge">
<title>Kereskedes1&#45;&gt;Vevo1</title>
<path fill="none" stroke="black" d="M330.4,-240.69C338.57,-239.86 346.72,-239.04 354.76,-238.22"/>
<polygon fill="black" stroke="black" points="329.78,-237.24 320.18,-241.73 330.48,-244.2 329.78,-237.24"/>
<polygon fill="black" stroke="black" points="355.3,-241.69 364.89,-237.2 354.59,-234.72 355.3,-241.69"/>
<text text-anchor="middle" x="347.71" y="-250.43" font-family="Times,serif" font-size="10.00">0..*</text>
<text text-anchor="middle" x="347.71" y="-239.43" font-family="Times,serif" font-size="10.00">partner</text>
<text text-anchor="middle" x="337.36" y="-228.99" font-family="Times,serif" font-size="10.00">1</text>
</g>
<!-- Vevo2 -->
<g id="node3" class="node">
<title>Vevo2</title>
<polygon fill="none" stroke="black" points="356,-52.84 356,-128.84 620,-128.84 620,-52.84 356,-52.84"/>
<text text-anchor="middle" x="488" y="-113.64" font-family="Times,serif" font-size="14.00">Állattartó</text>
<polyline fill="none" stroke="black" points="356,-105.84 620,-105.84 "/>
<text text-anchor="start" x="364" y="-90.64" font-family="Times,serif" font-size="14.00">név = &quot;Nagy Anna&quot;</text>
<text text-anchor="start" x="364" y="-75.64" font-family="Times,serif" font-size="14.00">cím = &quot;Debrecen, Kossuth utca 3.&quot;</text>
<text text-anchor="middle" x="488" y="-60.64" font-family="Times,serif" font-size="14.00">igazolványszám = &quot;QWE543210&quot;</text>
</g>
<!-- Kereskedes1&#45;&gt;Vevo2 -->
<g id="edge12" class="edge">
<title>Kereskedes1&#45;&gt;Vevo2</title>
<path fill="none" stroke="black" d="M229.87,-214.29C266.61,-191.91 312.99,-164.97 356,-143.84 363.44,-140.18 371.19,-136.57 379.06,-133.05"/>
<polygon fill="black" stroke="black" points="227.93,-211.37 221.23,-219.58 231.59,-217.34 227.93,-211.37"/>
<polygon fill="black" stroke="black" points="380.58,-136.2 388.32,-128.97 377.76,-129.8 380.58,-136.2"/>
<text text-anchor="middle" x="375.14" y="-147.01" font-family="Times,serif" font-size="10.00">0..*</text>
<text text-anchor="middle" x="375.14" y="-136.01" font-family="Times,serif" font-size="10.00">partner</text>
<text text-anchor="middle" x="232.28" y="-200.41" font-family="Times,serif" font-size="10.00">1</text>
</g>
<!-- Partner1 -->
<g id="node4" class="node">
<title>Partner1</title>
<polygon fill="none" stroke="black" points="365,-358.84 365,-434.84 611,-434.84 611,-358.84 365,-358.84"/>
<text text-anchor="middle" x="488" y="-419.64" font-family="Times,serif" font-size="14.00">Állattartó</text>
<polyline fill="none" stroke="black" points="365,-411.84 611,-411.84 "/>
<text text-anchor="start" x="373" y="-396.64" font-family="Times,serif" font-size="14.00">név = &quot;Kis Péter&quot;</text>
<text text-anchor="start" x="373" y="-381.64" font-family="Times,serif" font-size="14.00">cím = &quot;Szeged, Vár utca 4.&quot;</text>
<text text-anchor="middle" x="488" y="-366.64" font-family="Times,serif" font-size="14.00">igazolványszám = &quot;RTY678901&quot;</text>
</g>
<!-- Kereskedes1&#45;&gt;Partner1 -->
<g id="edge10" class="edge">
<title>Kereskedes1&#45;&gt;Partner1</title>
<path fill="none" stroke="black" d="M255.04,-300.01C286.99,-314.16 322.96,-329.88 356,-343.84 364.64,-347.49 373.62,-351.23 382.64,-354.96"/>
<polygon fill="black" stroke="black" points="256.26,-296.73 245.7,-295.87 253.42,-303.13 256.26,-296.73"/>
<polygon fill="black" stroke="black" points="381.47,-358.26 392.05,-358.83 384.13,-351.79 381.47,-358.26"/>
<text text-anchor="middle" x="372.07" y="-362.75" font-family="Times,serif" font-size="10.00">0..*</text>
<text text-anchor="middle" x="372.07" y="-351.75" font-family="Times,serif" font-size="10.00">partner</text>
<text text-anchor="middle" x="265.7" y="-292.99" font-family="Times,serif" font-size="10.00">1</text>
</g>
<!-- Szamla1 -->
<g id="node5" class="node">
<title>Szamla1</title>
<polygon fill="none" stroke="black" points="656,-210.34 656,-301.34 834,-301.34 834,-210.34 656,-210.34"/>
<text text-anchor="middle" x="745" y="-286.14" font-family="Times,serif" font-size="14.00">Számla</text>
<polyline fill="none" stroke="black" points="656,-278.34 834,-278.34 "/>
<text text-anchor="start" x="664" y="-263.14" font-family="Times,serif" font-size="14.00">eladó = Kereskedes1</text>
<text text-anchor="start" x="664" y="-248.14" font-family="Times,serif" font-size="14.00">vevő = Vevo1</text>
<text text-anchor="start" x="664" y="-233.14" font-family="Times,serif" font-size="14.00">dátum = &quot;2025&#45;04&#45;01&quot;</text>
<text text-anchor="middle" x="745" y="-218.14" font-family="Times,serif" font-size="14.00">ár = 5000</text>
</g>
<!-- Kereskedes1&#45;&gt;Szamla1 -->
<g id="edge1" class="edge">
<title>Kereskedes1&#45;&gt;Szamla1</title>
<path fill="none" stroke="black" d="M330.39,-271.51C417.09,-276.45 524.26,-279.37 620,-272.84 628.34,-272.27 636.97,-271.49 645.61,-270.57"/>
<polygon fill="black" stroke="black" points="330.38,-268 320.19,-270.92 329.97,-274.99 330.38,-268"/>
<polygon fill="black" stroke="black" points="646.21,-274.03 655.75,-269.44 645.43,-267.07 646.21,-274.03"/>
<text text-anchor="middle" x="638.68" y="-277.35" font-family="Times,serif" font-size="10.00">1</text>
<text text-anchor="middle" x="338.78" y="-261.03" font-family="Times,serif" font-size="10.00">1</text>
</g>
<!-- Szamla2 -->
<g id="node6" class="node">
<title>Szamla2</title>
<polygon fill="none" stroke="black" points="656,-396.34 656,-487.34 834,-487.34 834,-396.34 656,-396.34"/>
<text text-anchor="middle" x="745" y="-472.14" font-family="Times,serif" font-size="14.00">Számla</text>
<polyline fill="none" stroke="black" points="656,-464.34 834,-464.34 "/>
<text text-anchor="start" x="664" y="-449.14" font-family="Times,serif" font-size="14.00">eladó = Partner1</text>
<text text-anchor="start" x="664" y="-434.14" font-family="Times,serif" font-size="14.00">vevő = Kereskedes1</text>
<text text-anchor="start" x="664" y="-419.14" font-family="Times,serif" font-size="14.00">dátum = &quot;2025&#45;03&#45;15&quot;</text>
<text text-anchor="middle" x="745" y="-404.14" font-family="Times,serif" font-size="14.00">ár = 3000</text>
</g>
<!-- Kereskedes1&#45;&gt;Szamla2 -->
<g id="edge2" class="edge">
<title>Kereskedes1&#45;&gt;Szamla2</title>
<path fill="none" stroke="black" d="M192.7,-304.36C226.88,-349.99 285.94,-416.68 356,-444.84 448.9,-482.19 564.73,-475.15 645.54,-462.68"/>
<polygon fill="black" stroke="black" points="195.36,-302.07 186.6,-296.1 189.72,-306.23 195.36,-302.07"/>
<polygon fill="black" stroke="black" points="646.39,-466.09 655.71,-461.06 645.28,-459.18 646.39,-466.09"/>
<text text-anchor="middle" x="639.15" y="-469.77" font-family="Times,serif" font-size="10.00">1</text>
<text text-anchor="middle" x="204.16" y="-303.17" font-family="Times,serif" font-size="10.00">1</text>
</g>
<!-- Szamla3 -->
<g id="node7" class="node">
<title>Szamla3</title>
<polygon fill="none" stroke="black" points="656,-52.34 656,-143.34 834,-143.34 834,-52.34 656,-52.34"/>
<text text-anchor="middle" x="745" y="-128.14" font-family="Times,serif" font-size="14.00">Számla</text>
<polyline fill="none" stroke="black" points="656,-120.34 834,-120.34 "/>
<text text-anchor="start" x="664" y="-105.14" font-family="Times,serif" font-size="14.00">eladó = Kereskedes1</text>
<text text-anchor="start" x="664" y="-90.14" font-family="Times,serif" font-size="14.00">vevő = Vevo2</text>
<text text-anchor="start" x="664" y="-75.14" font-family="Times,serif" font-size="14.00">dátum = &quot;2025&#45;04&#45;05&quot;</text>
<text text-anchor="middle" x="745" y="-60.14" font-family="Times,serif" font-size="14.00">ár = 7000</text>
</g>
<!-- Kereskedes1&#45;&gt;Szamla3 -->
<g id="edge3" class="edge">
<title>Kereskedes1&#45;&gt;Szamla3</title>
<path fill="none" stroke="black" d="M251,-215.58C283.49,-201.76 320.83,-187.5 356,-177.84 470.37,-146.43 504.6,-166.22 620,-138.84 628.5,-136.82 637.24,-134.49 645.97,-131.97"/>
<polygon fill="black" stroke="black" points="249.33,-212.49 241.53,-219.65 252.1,-218.92 249.33,-212.49"/>
<polygon fill="black" stroke="black" points="647.2,-135.25 655.8,-129.06 645.22,-128.54 647.2,-135.25"/>
<text text-anchor="middle" x="640.82" y="-139.81" font-family="Times,serif" font-size="10.00">1</text>
<text text-anchor="middle" x="254.84" y="-202.23" font-family="Times,serif" font-size="10.00">1</text>
</g>
<!-- Horcsog1 -->
<g id="node8" class="node">
<title>Horcsog1</title>
<polygon fill="none" stroke="black" points="870,-303.34 870,-394.34 1033,-394.34 1033,-303.34 870,-303.34"/>
<text text-anchor="middle" x="951.5" y="-379.14" font-family="Times,serif" font-size="14.00">Hörcsög</text>
<polyline fill="none" stroke="black" points="870,-371.34 1033,-371.34 "/>
<text text-anchor="start" x="878" y="-356.14" font-family="Times,serif" font-size="14.00">azonosító = &quot;H123&quot;</text>
<text text-anchor="start" x="878" y="-341.14" font-family="Times,serif" font-size="14.00">szín = &quot;barna&quot;</text>
<text text-anchor="start" x="878" y="-326.14" font-family="Times,serif" font-size="14.00">kor = 1</text>
<text text-anchor="middle" x="951.5" y="-311.14" font-family="Times,serif" font-size="14.00">eszmeiÉrték = 4000</text>
</g>
<!-- Kereskedes1&#45;&gt;Horcsog1 -->
<g id="edge13" class="edge">
<title>Kereskedes1&#45;&gt;Horcsog1</title>
<path fill="none" stroke="black" d="M329.97,-284.37C338.77,-285.58 347.48,-286.75 356,-287.84 534,-310.65 742.84,-330.48 859.61,-340.95"/>
<polygon fill="black" stroke="black" points="330.39,-280.89 320.01,-282.98 329.43,-287.83 330.39,-280.89"/>
<polygon fill="black" stroke="black" points="859.31,-344.43 869.58,-341.84 859.93,-337.46 859.31,-344.43"/>
<text text-anchor="middle" x="850.77" y="-357.14" font-family="Times,serif" font-size="10.00">1</text>
<text text-anchor="middle" x="850.77" y="-346.14" font-family="Times,serif" font-size="10.00">birtokolja</text>
<text text-anchor="middle" x="850.77" y="-335.14" font-family="Times,serif" font-size="10.00">(vétel&gt;eladás)</text>
<text text-anchor="middle" x="339.13" y="-274.61" font-family="Times,serif" font-size="10.00">1</text>
</g>
<!-- Pinty1 -->
<g id="node9" class="node">
<title>Pinty1</title>
<polygon fill="none" stroke="black" points="870,-15.34 870,-106.34 1033,-106.34 1033,-15.34 870,-15.34"/>
<text text-anchor="middle" x="951.5" y="-91.14" font-family="Times,serif" font-size="14.00">Pinty</text>
<polyline fill="none" stroke="black" points="870,-83.34 1033,-83.34 "/>
<text text-anchor="start" x="878" y="-68.14" font-family="Times,serif" font-size="14.00">azonosító = &quot;P456&quot;</text>
<text text-anchor="start" x="878" y="-53.14" font-family="Times,serif" font-size="14.00">szín = &quot;sárga&quot;</text>
<text text-anchor="start" x="878" y="-38.14" font-family="Times,serif" font-size="14.00">kor = 2</text>
<text text-anchor="middle" x="951.5" y="-23.14" font-family="Times,serif" font-size="14.00">eszmeiÉrték = 2000</text>
</g>
<!-- Kereskedes1&#45;&gt;Pinty1 -->
<g id="edge15" class="edge">
<title>Kereskedes1&#45;&gt;Pinty1</title>
<path fill="none" stroke="black" d="M187.31,-210.87C219.44,-158.89 279.13,-77.95 356,-43.84 521.47,29.58 739.13,-5.54 859.88,-34.96"/>
<polygon fill="black" stroke="black" points="184.22,-209.22 182.02,-219.59 190.2,-212.86 184.22,-209.22"/>
<polygon fill="black" stroke="black" points="859.29,-38.42 869.83,-37.43 860.97,-31.63 859.29,-38.42"/>
<text text-anchor="middle" x="850.21" y="-49.77" font-family="Times,serif" font-size="10.00">1</text>
<text text-anchor="middle" x="850.21" y="-38.77" font-family="Times,serif" font-size="10.00">birtokolja</text>
<text text-anchor="middle" x="850.21" y="-27.77" font-family="Times,serif" font-size="10.00">(vétel=eladás)</text>
<text text-anchor="middle" x="184.21" y="-197.21" font-family="Times,serif" font-size="10.00">1</text>
</g>
<!-- Vevo1&#45;&gt;Szamla1 -->
<g id="edge4" class="edge">
<title>Vevo1&#45;&gt;Szamla1</title>
<path fill="none" stroke="black" d="M621.53,-240.95C629.73,-241.95 637.91,-242.94 645.92,-243.92"/>
<polygon fill="black" stroke="black" points="621.62,-237.44 611.27,-239.7 620.78,-244.38 621.62,-237.44"/>
<polygon fill="black" stroke="black" points="645.62,-247.4 655.97,-245.14 646.46,-240.46 645.62,-247.4"/>
<text text-anchor="middle" x="636.95" y="-248.84" font-family="Times,serif" font-size="10.00">1</text>
<text text-anchor="middle" x="630.29" y="-231" font-family="Times,serif" font-size="10.00">1</text>
</g>
<!-- Vevo2&#45;&gt;Szamla3 -->
<g id="edge6" class="edge">
<title>Vevo2&#45;&gt;Szamla3</title>
<path fill="none" stroke="black" d="M630.41,-94.72C635.54,-94.86 640.64,-95 645.67,-95.14"/>
<polygon fill="black" stroke="black" points="630.33,-91.22 620.23,-94.44 630.14,-98.21 630.33,-91.22"/>
<polygon fill="black" stroke="black" points="645.82,-98.64 655.91,-95.42 646.01,-91.65 645.82,-98.64"/>
<text text-anchor="middle" x="637.56" y="-100.87" font-family="Times,serif" font-size="10.00">1</text>
<text text-anchor="middle" x="638.59" y="-83.99" font-family="Times,serif" font-size="10.00">1</text>
</g>
<!-- Partner1&#45;&gt;Szamla2 -->
<g id="edge5" class="edge">
<title>Partner1&#45;&gt;Szamla2</title>
<path fill="none" stroke="black" d="M621.18,-420.16C629.55,-421.64 637.91,-423.12 646.08,-424.56"/>
<polygon fill="black" stroke="black" points="621.73,-416.71 611.27,-418.42 620.51,-423.6 621.73,-416.71"/>
<polygon fill="black" stroke="black" points="645.51,-428.01 655.97,-426.3 646.73,-421.12 645.51,-428.01"/>
<text text-anchor="middle" x="636.65" y="-428.98" font-family="Times,serif" font-size="10.00">1</text>
<text text-anchor="middle" x="630.59" y="-410.74" font-family="Times,serif" font-size="10.00">1</text>
</g>
<!-- Partner1&#45;&gt;Horcsog1 -->
<g id="edge14" class="edge">
<title>Partner1&#45;&gt;Horcsog1</title>
<path fill="none" stroke="black" d="M621.35,-383.07C697.68,-375.13 791.7,-365.36 859.68,-358.28"/>
<polygon fill="black" stroke="black" points="620.74,-379.62 611.16,-384.13 621.47,-386.58 620.74,-379.62"/>
<polygon fill="black" stroke="black" points="860.36,-361.73 869.94,-357.22 859.63,-354.77 860.36,-361.73"/>
<text text-anchor="middle" x="852.79" y="-370.5" font-family="Times,serif" font-size="10.00">1</text>
<text text-anchor="middle" x="852.79" y="-359.5" font-family="Times,serif" font-size="10.00">eladta</text>
<text text-anchor="middle" x="628.31" y="-371.35" font-family="Times,serif" font-size="10.00">1</text>
</g>
<!-- Szamla1&#45;&gt;Horcsog1 -->
<g id="edge7" class="edge">
<title>Szamla1&#45;&gt;Horcsog1</title>
<path fill="none" stroke="black" d="M843.45,-300.15C849.14,-302.75 854.86,-305.34 860.53,-307.92"/>
<polygon fill="black" stroke="black" points="844.76,-296.91 834.21,-295.95 841.86,-303.28 844.76,-296.91"/>
<polygon fill="black" stroke="black" points="859.45,-311.28 870,-312.23 862.34,-304.9 859.45,-311.28"/>
<text text-anchor="middle" x="850" y="-309.92" font-family="Times,serif" font-size="10.00">1</text>
<text text-anchor="middle" x="854.21" y="-293.26" font-family="Times,serif" font-size="10.00">1</text>
</g>
<!-- Szamla2&#45;&gt;Horcsog1 -->
<g id="edge8" class="edge">
<title>Szamla2&#45;&gt;Horcsog1</title>
<path fill="none" stroke="black" d="M843.45,-397.52C849.14,-394.93 854.86,-392.33 860.53,-389.76"/>
<polygon fill="black" stroke="black" points="841.86,-394.4 834.21,-401.72 844.76,-400.77 841.86,-394.4"/>
<polygon fill="black" stroke="black" points="862.34,-392.77 870,-385.45 859.45,-386.4 862.34,-392.77"/>
<text text-anchor="middle" x="857" y="-398.15" font-family="Times,serif" font-size="10.00">1</text>
<text text-anchor="middle" x="847.21" y="-384.03" font-family="Times,serif" font-size="10.00">1</text>
</g>
<!-- Szamla3&#45;&gt;Pinty1 -->
<g id="edge9" class="edge">
<title>Szamla3&#45;&gt;Pinty1</title>
<path fill="none" stroke="black" d="M844.29,-80.06C849.54,-79.11 854.8,-78.15 860.02,-77.21"/>
<polygon fill="black" stroke="black" points="843.43,-76.65 834.21,-81.88 844.67,-83.54 843.43,-76.65"/>
<polygon fill="black" stroke="black" points="860.78,-80.63 870,-75.4 859.53,-73.74 860.78,-80.63"/>
<text text-anchor="middle" x="853.67" y="-84.45" font-family="Times,serif" font-size="10.00">1</text>
<text text-anchor="middle" x="850.54" y="-67.83" font-family="Times,serif" font-size="10.00">1</text>
</g>
</g>
</svg>
