<?xml version="1.0" encoding="UTF-8" standalone="no"?>
<!DOCTYPE svg PUBLIC "-//W3C//DTD SVG 1.1//EN"
 "http://www.w3.org/Graphics/SVG/1.1/DTD/svg11.dtd">
<!-- Generated by graphviz version 2.43.0 (0)
 -->
<!-- Title: Kisallatkereskedes Pages: 1 -->
<svg width="936pt" height="560pt"
 viewBox="0.00 0.00 935.64 560.12" xmlns="http://www.w3.org/2000/svg" xmlns:xlink="http://www.w3.org/1999/xlink">
<g id="graph0" class="graph" transform="scale(1 1) rotate(0) translate(4 556.12)">
<title>Kisallatkereskedes</title>
<polygon fill="white" stroke="transparent" points="-4,4 -4,-556.12 931.64,-556.12 931.64,4 -4,4"/>
<g id="clust1" class="cluster">
<title>cluster_0</title>
<path fill="none" stroke="black" d="M192,-75.73C192,-75.73 907.64,-75.73 907.64,-75.73 913.64,-75.73 919.64,-81.73 919.64,-87.73 919.64,-87.73 919.64,-516.73 919.64,-516.73 919.64,-522.73 913.64,-528.73 907.64,-528.73 907.64,-528.73 192,-528.73 192,-528.73 186,-528.73 180,-522.73 180,-516.73 180,-516.73 180,-87.73 180,-87.73 180,-81.73 186,-75.73 192,-75.73"/>
<text text-anchor="middle" x="549.82" y="-513.53" font-family="Times,serif" font-size="14.00">Kisállatkereskedés Rendszer</text>
</g>
<!-- A -->
<g id="node1" class="node">
<title>A</title>
<polygon fill="none" stroke="black" points="118,-154.73 33,-154.73 33,-118.73 118,-118.73 118,-154.73"/>
<text text-anchor="middle" x="75.5" y="-133.03" font-family="Times,serif" font-size="14.00">Állattartó</text>
</g>
<!-- Vasarlas -->
<g id="node3" class="node">
<title>Vasarlas</title>
<ellipse fill="none" stroke="black" cx="353.09" cy="-317.73" rx="79.09" ry="18"/>
<text text-anchor="middle" x="353.09" y="-314.03" font-family="Times,serif" font-size="14.00">Állat vásárlása</text>
</g>
<!-- A&#45;&gt;Vasarlas -->
<g id="edge1" class="edge">
<title>A&#45;&gt;Vasarlas</title>
<path fill="none" stroke="black" d="M82.99,-154.82C95.87,-187.85 127.98,-257.58 180,-290.73 204.64,-306.43 235.19,-314.13 263.68,-317.63"/>
<polygon fill="black" stroke="black" points="263.34,-321.11 273.66,-318.69 264.09,-314.15 263.34,-321.11"/>
</g>
<!-- Eladas -->
<g id="node4" class="node">
<title>Eladas</title>
<ellipse fill="none" stroke="black" cx="353.09" cy="-263.73" rx="70.39" ry="18"/>
<text text-anchor="middle" x="353.09" y="-260.03" font-family="Times,serif" font-size="14.00">Állat eladása</text>
</g>
<!-- A&#45;&gt;Eladas -->
<g id="edge2" class="edge">
<title>A&#45;&gt;Eladas</title>
<path fill="none" stroke="black" d="M89.58,-154.98C107.25,-178.12 141.08,-217.36 180,-236.73 208.46,-250.9 242.56,-257.99 272.87,-261.42"/>
<polygon fill="black" stroke="black" points="272.69,-264.92 282.99,-262.44 273.4,-257.95 272.69,-264.92"/>
</g>
<!-- AllatKeresesSzin -->
<g id="node8" class="node">
<title>AllatKeresesSzin</title>
<ellipse fill="none" stroke="black" cx="758.91" cy="-169.73" rx="104.78" ry="18"/>
<text text-anchor="middle" x="758.91" y="-166.03" font-family="Times,serif" font-size="14.00">Állat keresése (szín)</text>
</g>
<!-- A&#45;&gt;AllatKeresesSzin -->
<g id="edge3" class="edge">
<title>A&#45;&gt;AllatKeresesSzin</title>
<path fill="none" stroke="black" d="M98.67,-118.55C118.58,-103.49 149.31,-83.22 180,-74.73 324.86,-34.67 374.72,-29.88 518.17,-74.73 563.59,-88.94 562.59,-116.62 606.17,-135.73 625.81,-144.34 647.86,-150.89 668.95,-155.81"/>
<polygon fill="black" stroke="black" points="668.36,-159.27 678.88,-158.03 669.89,-152.43 668.36,-159.27"/>
</g>
<!-- HorcsogSzamlalas -->
<g id="node9" class="node">
<title>HorcsogSzamlalas</title>
<ellipse fill="none" stroke="black" cx="758.91" cy="-108.73" rx="113.98" ry="18"/>
<text text-anchor="middle" x="758.91" y="-105.03" font-family="Times,serif" font-size="14.00">Hörcsögök számlálása</text>
</g>
<!-- A&#45;&gt;HorcsogSzamlalas -->
<g id="edge4" class="edge">
<title>A&#45;&gt;HorcsogSzamlalas</title>
<path fill="none" stroke="black" d="M87.53,-118.53C102.63,-95.6 132.1,-57.31 169,-41.73 340.64,30.71 405.15,-6.92 588.17,-41.73 633.69,-50.39 682.6,-71.02 716.16,-87.12"/>
<polygon fill="black" stroke="black" points="714.69,-90.3 725.21,-91.53 717.75,-84 714.69,-90.3"/>
</g>
<!-- SzamlaLekerdezesPartner -->
<g id="node10" class="node">
<title>SzamlaLekerdezesPartner</title>
<ellipse fill="none" stroke="black" cx="353.09" cy="-155.73" rx="157.87" ry="18"/>
<text text-anchor="middle" x="353.09" y="-152.03" font-family="Times,serif" font-size="14.00">Számlák lekérdezése partnertől</text>
</g>
<!-- A&#45;&gt;SzamlaLekerdezesPartner -->
<g id="edge5" class="edge">
<title>A&#45;&gt;SzamlaLekerdezesPartner</title>
<path fill="none" stroke="black" d="M118.06,-139.6C142.31,-141.27 174.51,-143.49 207.25,-145.75"/>
<polygon fill="black" stroke="black" points="207.2,-149.25 217.42,-146.45 207.68,-142.27 207.2,-149.25"/>
</g>
<!-- TulajdonjogEllenorzes -->
<g id="node13" class="node">
<title>TulajdonjogEllenorzes</title>
<ellipse fill="none" stroke="black" cx="353.09" cy="-101.73" rx="165.17" ry="18"/>
<text text-anchor="middle" x="353.09" y="-98.03" font-family="Times,serif" font-size="14.00">Állat tulajdonjogának ellenőrzése</text>
</g>
<!-- A&#45;&gt;TulajdonjogEllenorzes -->
<g id="edge6" class="edge">
<title>A&#45;&gt;TulajdonjogEllenorzes</title>
<path fill="none" stroke="black" d="M118.06,-131.46C149.17,-127.5 193.36,-121.89 234.97,-116.61"/>
<polygon fill="black" stroke="black" points="235.44,-120.08 244.92,-115.34 234.56,-113.13 235.44,-120.08"/>
</g>
<!-- K -->
<g id="node2" class="node">
<title>K</title>
<polygon fill="none" stroke="black" points="151,-470.73 0,-470.73 0,-434.73 151,-434.73 151,-470.73"/>
<text text-anchor="middle" x="75.5" y="-449.03" font-family="Times,serif" font-size="14.00">Kisállatkereskedés</text>
</g>
<!-- Nyilvantartas -->
<g id="node5" class="node">
<title>Nyilvantartas</title>
<ellipse fill="none" stroke="black" cx="353.09" cy="-209.73" rx="102.08" ry="18"/>
<text text-anchor="middle" x="353.09" y="-206.03" font-family="Times,serif" font-size="14.00">Állat nyilvántartása</text>
</g>
<!-- K&#45;&gt;Nyilvantartas -->
<g id="edge7" class="edge">
<title>K&#45;&gt;Nyilvantartas</title>
<path fill="none" stroke="black" d="M79.38,-434.65C87.13,-392.38 112.62,-286.88 180,-236.73 197.67,-223.58 219.22,-215.73 241.01,-211.22"/>
<polygon fill="black" stroke="black" points="241.82,-214.63 251.02,-209.38 240.55,-207.75 241.82,-214.63"/>
</g>
<!-- PartnerNyilvantartas -->
<g id="node6" class="node">
<title>PartnerNyilvantartas</title>
<ellipse fill="none" stroke="black" cx="353.09" cy="-371.73" rx="115.88" ry="18"/>
<text text-anchor="middle" x="353.09" y="-368.03" font-family="Times,serif" font-size="14.00">Partner nyilvántartása</text>
</g>
<!-- K&#45;&gt;PartnerNyilvantartas -->
<g id="edge8" class="edge">
<title>K&#45;&gt;PartnerNyilvantartas</title>
<path fill="none" stroke="black" d="M104.83,-434.73C125.03,-422.71 153.24,-407.55 180,-398.73 200.55,-391.96 223.05,-386.87 244.81,-383.04"/>
<polygon fill="black" stroke="black" points="245.47,-386.48 254.75,-381.37 244.31,-379.58 245.47,-386.48"/>
</g>
<!-- SzamlaKiallitas -->
<g id="node7" class="node">
<title>SzamlaKiallitas</title>
<ellipse fill="none" stroke="black" cx="758.91" cy="-317.73" rx="89.08" ry="18"/>
<text text-anchor="middle" x="758.91" y="-314.03" font-family="Times,serif" font-size="14.00">Számla kiállítása</text>
</g>
<!-- K&#45;&gt;SzamlaKiallitas -->
<g id="edge9" class="edge">
<title>K&#45;&gt;SzamlaKiallitas</title>
<path fill="none" stroke="black" d="M94.79,-470.82C112.2,-486.67 139.99,-508.56 169,-517.73 317.04,-564.55 374.44,-565.45 518.17,-506.73 567.38,-486.63 564.88,-459.21 606.17,-425.73 644.85,-394.37 691.91,-361.65 723.27,-340.56"/>
<polygon fill="black" stroke="black" points="725.32,-343.41 731.68,-334.93 721.42,-337.59 725.32,-343.41"/>
</g>
<!-- LegdragabbTarantulla -->
<g id="node11" class="node">
<title>LegdragabbTarantulla</title>
<ellipse fill="none" stroke="black" cx="353.09" cy="-479.73" rx="159.47" ry="18"/>
<text text-anchor="middle" x="353.09" y="-476.03" font-family="Times,serif" font-size="14.00">Legdrágább tarantulla keresése</text>
</g>
<!-- K&#45;&gt;LegdragabbTarantulla -->
<g id="edge10" class="edge">
<title>K&#45;&gt;LegdragabbTarantulla</title>
<path fill="none" stroke="black" d="M151.08,-460.04C173.07,-462.2 197.81,-464.62 222.22,-467.01"/>
<polygon fill="black" stroke="black" points="221.99,-470.5 232.28,-468 222.67,-463.54 221.99,-470.5"/>
</g>
<!-- PartnerSzamLekerdezes -->
<g id="node12" class="node">
<title>PartnerSzamLekerdezes</title>
<ellipse fill="none" stroke="black" cx="758.91" cy="-452.73" rx="152.97" ry="18"/>
<text text-anchor="middle" x="758.91" y="-449.03" font-family="Times,serif" font-size="14.00">Partner számának lekérdezése</text>
</g>
<!-- K&#45;&gt;PartnerSzamLekerdezes -->
<g id="edge11" class="edge">
<title>K&#45;&gt;PartnerSzamLekerdezes</title>
<path fill="none" stroke="black" d="M102.74,-470.97C122.86,-483.79 151.85,-499.83 180,-506.73 362.69,-551.53 586.23,-502.28 693.91,-472.32"/>
<polygon fill="black" stroke="black" points="694.98,-475.66 703.65,-469.58 693.08,-468.92 694.98,-475.66"/>
</g>
<!-- NyeresegSzamitas -->
<g id="node14" class="node">
<title>NyeresegSzamitas</title>
<ellipse fill="none" stroke="black" cx="353.09" cy="-425.73" rx="104.78" ry="18"/>
<text text-anchor="middle" x="353.09" y="-422.03" font-family="Times,serif" font-size="14.00">Nyereség számítása</text>
</g>
<!-- K&#45;&gt;NyeresegSzamitas -->
<g id="edge12" class="edge">
<title>K&#45;&gt;NyeresegSzamitas</title>
<path fill="none" stroke="black" d="M151.08,-445.43C181.99,-442.4 218.33,-438.84 251.54,-435.58"/>
<polygon fill="black" stroke="black" points="252.13,-439.04 261.74,-434.59 251.44,-432.08 252.13,-439.04"/>
</g>
<!-- Vasarlas&#45;&gt;SzamlaKiallitas -->
<g id="edge13" class="edge">
<title>Vasarlas&#45;&gt;SzamlaKiallitas</title>
<path fill="none" stroke="black" stroke-dasharray="5,2" d="M432.43,-317.73C497.24,-317.73 589.67,-317.73 659.48,-317.73"/>
<polygon fill="black" stroke="black" points="659.61,-321.23 669.61,-317.73 659.61,-314.23 659.61,-321.23"/>
<text text-anchor="middle" x="562.17" y="-321.53" font-family="Times,serif" font-size="14.00">include</text>
</g>
<!-- Eladas&#45;&gt;SzamlaKiallitas -->
<g id="edge14" class="edge">
<title>Eladas&#45;&gt;SzamlaKiallitas</title>
<path fill="none" stroke="black" stroke-dasharray="5,2" d="M415.86,-271.99C484.89,-281.23 597.07,-296.23 674.01,-306.51"/>
<polygon fill="black" stroke="black" points="673.78,-310.01 684.15,-307.87 674.7,-303.08 673.78,-310.01"/>
<text text-anchor="middle" x="562.17" y="-297.53" font-family="Times,serif" font-size="14.00">include</text>
</g>
<!-- Nyilvantartas&#45;&gt;AllatKeresesSzin -->
<g id="edge15" class="edge">
<title>Nyilvantartas&#45;&gt;AllatKeresesSzin</title>
<path fill="none" stroke="black" stroke-dasharray="5,2" d="M442.71,-200.96C506.2,-194.67 591.78,-186.19 657.75,-179.65"/>
<polygon fill="black" stroke="black" points="658.14,-183.13 667.75,-178.66 657.45,-176.17 658.14,-183.13"/>
<text text-anchor="middle" x="562.17" y="-194.53" font-family="Times,serif" font-size="14.00">include</text>
</g>
<!-- Nyilvantartas&#45;&gt;HorcsogSzamlalas -->
<g id="edge16" class="edge">
<title>Nyilvantartas&#45;&gt;HorcsogSzamlalas</title>
<path fill="none" stroke="black" stroke-dasharray="5,2" d="M448.18,-202.99C471.77,-198.96 496.51,-192.64 518.17,-182.73 527.64,-178.4 527.13,-172.9 536.17,-167.73 564.86,-151.35 574.44,-151.92 606.17,-142.73 628.87,-136.16 653.79,-130.11 676.76,-124.99"/>
<polygon fill="black" stroke="black" points="677.8,-128.34 686.81,-122.78 676.29,-121.51 677.8,-128.34"/>
<text text-anchor="middle" x="562.17" y="-171.53" font-family="Times,serif" font-size="14.00">include</text>
</g>
<!-- PartnerNyilvantartas&#45;&gt;PartnerSzamLekerdezes -->
<g id="edge17" class="edge">
<title>PartnerNyilvantartas&#45;&gt;PartnerSzamLekerdezes</title>
<path fill="none" stroke="black" stroke-dasharray="5,2" d="M436.47,-384.32C462.64,-388.58 491.67,-393.57 518.17,-398.73 572.91,-409.39 634.24,-423.24 681.17,-434.25"/>
<polygon fill="black" stroke="black" points="680.42,-437.67 690.96,-436.55 682.03,-430.85 680.42,-437.67"/>
<text text-anchor="middle" x="562.17" y="-415.53" font-family="Times,serif" font-size="14.00">include</text>
</g>
</g>
</svg>
